<svg xmlns="http://www.w3.org/2000/svg" xml:space="preserve" viewBox="0 0 679.7 170.9"><defs><linearGradient id="ThrillarkLogo_svg__a" x1="8.127" x2="166.605" y1="85.438" y2="85.438" gradientUnits="userSpaceOnUse"><stop offset="0.216" stop-color="#1262AD"></stop><stop offset="0.46" stop-color="#2193BB"></stop><stop offset="0.696" stop-color="#2EBCC7"></stop><stop offset="0.818" stop-color="#3CC"></stop></linearGradient></defs><g fill="#3CC"><path d="M294.2 69.4c-9.5 0-17.2 3.9-21.5 12.6V48c0-7.7-5.4-14.2-12.7-15.8-.7-.2-1.4-.4-2.2-.4h-72c0 7.5 6.1 13.6 13.6 13.6h20V132c0 3 2.4 5.4 5.4 5.4h6.1c3 0 5.4-2.4 5.4-5.4V45.5h20.2v86.6c0 3 2.4 5.4 5.4 5.4h5.4c3 0 5.4-2.4 5.4-5.4v-27.9c0-15.1 9.1-21.1 17-21.1 8 0 13 6.1 13 17.6V132c0 3 2.4 5.4 5.4 5.4h5.4c3 0 5.4-2.4 5.4-5.4v-31.5c0-19.1-8.2-31.1-24.7-31.1M346.7 85.6c0-8.1-6.6-14.7-14.7-14.7h-1.2v61.2c0 3 2.4 5.4 5.4 5.4h5.4c3 0 5.4-2.4 5.4-5.4v-25.4c0-18.4 9.9-21.7 15.8-21.7 2.1 0 5.1.4 7.6 1.3V70.4c-2-.5-3.3-.9-5.5-.9-7.1-.1-16 4.8-18.2 16.1M379 70.9v61.2c0 3 2.4 5.4 5.4 5.4h5.4c3 0 5.4-2.4 5.4-5.4v-45c0-9-7.3-16.2-16.2-16.2M411.5 31.9v100.2c0 3 2.4 5.4 5.4 5.4h5.4c3 0 5.4-2.4 5.4-5.4v-84c0-8.9-7.3-16.2-16.2-16.2M444 31.9v100.2c0 3 2.4 5.4 5.4 5.4h5.4c3 0 5.4-2.4 5.4-5.4v-84c0-8.9-7.3-16.2-16.2-16.2M527.3 70.9v9.9c-5.4-7.6-13.7-11.3-22.6-11.3-20.4 0-32.8 15.7-32.8 34.5 0 19.5 12.9 35 32.6 35 9.7 0 18-4.2 22.8-11.5v4.6c0 3 2.4 5.4 5.4 5.4h5.4c3 0 5.4-2.4 5.4-5.4v-45c0-9-7.2-16.2-16.2-16.2m-19.4 54.5c-12.1 0-19.6-9.5-19.6-21.3 0-11.5 7-21.1 19.2-21.1 12 0 20.3 8.8 20.3 21.7-.1 13.2-8.9 20.7-19.9 20.7M572.3 85.6c0-8.1-6.6-14.7-14.7-14.7h-1.2v61.2c0 3 2.4 5.4 5.4 5.4h5.4c3 0 5.4-2.4 5.4-5.4v-25.4c0-18.4 9.9-21.7 15.8-21.7 2.1 0 5.1.4 7.6 1.3V70.4c-2-.5-3.3-.9-5.5-.9-7.2-.1-16 4.8-18.2 16.1M671 129.1l-1.4-2.7c-1.2-2.2-3.7-3.2-6.2-2.6-1.7.4-3.2.6-4 .6-4.9 0-7-2.4-10.4-7.4l-10-15.5 23.2-28.6v-2H647c-1.7 0-3.3.8-4.3 2.1l-19.3 25.4V58.5c0-8.9-7.2-16.2-16.2-16.2v89.8c0 3 2.4 5.4 5.4 5.4h5.4c3 0 5.4-2.4 5.4-5.4v-26.9l13.4 21.6c4.6 6.6 10.3 12.1 20.4 12.1 2.5 0 7.1-.2 11.6-2.6 2.5-1.3 3.5-4.6 2.2-7.2"></path><circle cx="387.1" cy="53.4" r="9.3"></circle></g><path fill="url(#ThrillarkLogo_svg__a)" d="M84.7 160.1c-2.7 0-5.1-1.4-6.3-3.7 0 0-21.5-46.2-27.8-58.3-2.8-5.4-2.4-11.5 1.2-16.9 3.5-5.2 9.3-8.6 14.9-8.6 13.3 0 62.1-.5 62.6-.5 15.1 0 23.3-13.1 23.3-25.4 0-8-6.8-23.1-23.2-23.1H31.6c-5 0-9.5 5.6-9.5 12.1 0 6.2 3.9 10.5 9.5 10.5h80.2c7.7 0 14 5.9 14 13.1H31.6c-13.4 0-23.5-10.1-23.5-23.6 0-13.9 10.5-25.2 23.5-25.2h97.8c23 0 37.2 18.8 37.2 36.1 0 21.9-16 38.4-37.2 38.4-.4 0-59.2.5-62.7.5-.9 0-2.1.7-3.2 2.5-.9 1.4-.4 4 .2 5.2 4.1 7.8 14 32 20.9 45.1l16.2-32.3c3.4-6.5 11.7-9.2 18.7-6.1L91 156.5c-1.2 2.2-3.6 3.6-6.3 3.6"></path><path fill="#3CC" d="m89.9 105.4-4.6 9.1-4.6-9.1c-.6-1.1-.7-2.5-.1-3.6.9-1.8 2.7-3 4.8-3s3.9 1.2 4.8 3c.4 1.2.3 2.5-.3 3.6"></path></svg>
